<svg width="154" height="154" viewBox="0 0 154 154" fill="none" xmlns="http://www.w3.org/2000/svg">
<path d="M142.753 134.519C135.984 137.262 125.571 136.124 116.25 134.726C107.138 133.38 89.8515 125.41 72.044 115.99C99.6404 111.228 120.676 87.264 120.676 58.4348C120.624 26.1895 94.3294 0 61.8385 0C29.3998 0 3.05307 26.1895 3.05307 58.4348C3.05307 78.6204 13.3627 96.4769 29.0353 106.932C24.974 107.657 22.1102 108.537 17.424 110.814C12.4775 113.661 7.73924 117.439 5.08374 121.062C2.42824 124.633 -0.695876 130.534 0.137222 130.171C0.918251 129.809 7.84338 122.666 19.1423 121.476C31.7429 120.441 44.3435 125.72 50.1231 127.894C55.9027 130.068 82.1453 144.974 94.2252 149.995C104.587 153.825 118.75 155.015 126.352 153.1C133.277 152.169 138.692 147.924 143.17 144.198C147.596 140.471 153.792 128.308 154 127.946C153.792 128.049 148.272 132.5 142.753 134.519ZM26.9005 58.176C26.9005 39.2843 42.3128 23.964 61.3178 23.964C80.3229 23.964 95.7352 39.2843 95.7352 58.176C95.7352 77.0677 80.3229 92.388 61.3178 92.388C42.3128 92.388 26.9005 77.0677 26.9005 58.176Z" fill="url(#paint0_linear_766_268)"/>
<defs>
<linearGradient id="paint0_linear_766_268" x1="69.0345" y1="154" x2="69.0345" y2="-51.6064" gradientUnits="userSpaceOnUse">
<stop stop-color="white" stop-opacity="0"/>
<stop stop-color="#95B2FB"/>
<stop offset="1" stop-color="white"/>
</linearGradient>
</defs>
</svg>
